<?xml version="1.0" encoding="UTF-8" standalone="no"?>
<svg
   xmlns:dc="http://purl.org/dc/elements/1.1/"
   xmlns:cc="http://creativecommons.org/ns#"
   xmlns:rdf="http://www.w3.org/1999/02/22-rdf-syntax-ns#"
   xmlns:svg="http://www.w3.org/2000/svg"
   xmlns="http://www.w3.org/2000/svg"
   id="svg8"
   version="1.1"
   viewBox="0 0 17.291468 33.849876"
   height="33.849876mm"
   width="17.291468mm">
  <defs
     id="defs2" />
  <metadata
     id="metadata5">
    <rdf:RDF>
      <cc:Work
         rdf:about="">
        <dc:format>image/svg+xml</dc:format>
        <dc:type
           rdf:resource="http://purl.org/dc/dcmitype/StillImage" />
        <dc:title></dc:title>
      </cc:Work>
    </rdf:RDF>
  </metadata>
  <g
     transform="translate(-199.2034,-14.045204)"
     id="layer1">
    <g
       transform="matrix(0.26458333,0,0,0.26458333,31.965255,107.21318)"
       id="g853">
      <g
         style="display:none"
         display="none"
         id="g817">
        <rect
           x="-100.25"
           y="-64.246002"
           style="display:inline;fill:#cc9999;stroke:#592f37;stroke-width:3;stroke-linecap:round;stroke-linejoin:round;stroke-miterlimit:10"
           width="1551.155"
           height="1293.129"
           display="inline"
           stroke-miterlimit="10"
           id="rect815" />
      </g>
      <g
         transform="translate(230.71429)"
         id="g1005">
        <g
           transform="translate(-199.96994,-336.63047)"
           id="g884">
          <symbol
             viewBox="-9.858 -9.858 19.716 19.716"
             id="symbol832">
            <path
               style="fill:#000000;stroke:#592f37;stroke-width:2.56990004;stroke-miterlimit:10"
               stroke-miterlimit="10"
               d="M 8.573,0 C 8.573,-4.735 4.735,-8.573 0,-8.573 -4.735,-8.573 -8.573,-4.735 -8.573,0 -8.573,4.735 -4.735,8.573 0,8.573 4.735,8.573 8.573,4.735 8.573,0 Z"
               id="path828" />
            <path
               style="fill:#000000;stroke:#592f37;stroke-width:2.56990004;stroke-miterlimit:10"
               stroke-miterlimit="10"
               d="m 2.858,0 c 0,-1.578 -1.279,-2.858 -2.858,-2.858 -1.578,0 -2.858,1.279 -2.858,2.858 0,1.578 1.279,2.858 2.858,2.858 1.578,0 2.858,-1.28 2.858,-2.858 z"
               id="path830" />
          </symbol>
          <symbol
             viewBox="-5.525 -16.49 11.051 32.981"
             id="symbol836">
            <path
               style="fill:#000000;stroke:#592f37;stroke-width:2;stroke-miterlimit:10"
               stroke-miterlimit="10"
               d="m 4.526,-15.49 h -9.051 v 30.981 h 1.559 c 4.138,0 7.492,-3.354 7.492,-7.492 z"
               id="path834" />
          </symbol>
          <g
             style="display:none"
             display="none"
             id="g840">
            <rect
               style="display:inline;fill:#000000"
               x="-482.37399"
               y="-53.376999"
               display="inline"
               width="1328.934"
               height="1233.377"
               id="rect838" />
          </g>
          <g
             id="g1015">
            <path
               id="path981"
               style="font-style:normal;font-variant:normal;font-weight:600;font-stretch:normal;font-size:29.85866547px;line-height:1.25;font-family:Montserrat;-inkscape-font-specification:'Montserrat, Semi-Bold';font-variant-ligatures:normal;font-variant-caps:normal;font-variant-numeric:normal;font-feature-settings:normal;text-align:start;letter-spacing:0px;word-spacing:0px;writing-mode:lr-tb;text-anchor:start;fill:#000000;fill-opacity:1;stroke:none;stroke-width:1"
               d="m 616.19776,112.43607 q -3.41956,0 -6.168,-1.47009 -2.74842,-1.50204 -4.3144,-4.12264 -1.56596,-2.65255 -1.56596,-5.91233 0,-3.259761 1.56596,-5.880358 1.56598,-2.652557 4.3144,-4.122649 2.74844,-1.502049 6.168,-1.502049 3.41955,0 6.16799,1.502049 2.74843,1.470092 4.3144,4.090689 1.56596,2.620597 1.56596,5.912318 0,3.29174 -1.56596,5.91233 -1.56597,2.6206 -4.3144,4.12264 -2.74844,1.47009 -6.16799,1.47009 z m 0,-3.64326 q 2.23709,0 4.02677,-0.99071 1.78967,-1.02268 2.81235,-2.81236 1.02267,-1.82163 1.02267,-4.05873 0,-2.237094 -1.02267,-4.026771 -1.02268,-1.821627 -2.81235,-2.812347 -1.78968,-1.022671 -4.02677,-1.022671 -2.2371,0 -4.02678,1.022671 -1.78967,0.99072 -2.81234,2.812347 -1.02268,1.789677 -1.02268,4.026771 0,2.2371 1.02268,4.05873 1.02267,1.78968 2.81234,2.81236 1.78968,0.99071 4.02678,0.99071 z" />
            <path
               id="path983"
               style="font-style:normal;font-variant:normal;font-weight:600;font-stretch:normal;font-size:29.85866547px;line-height:1.25;font-family:Montserrat;-inkscape-font-specification:'Montserrat, Semi-Bold';font-variant-ligatures:normal;font-variant-caps:normal;font-variant-numeric:normal;font-feature-settings:normal;text-align:start;letter-spacing:0px;word-spacing:0px;writing-mode:lr-tb;text-anchor:start;fill:#000000;fill-opacity:1;stroke:none;stroke-width:1"
               d="m 658.21887,95.370222 -6.29582,17.065848 h -3.83502 l -4.41027,-11.76073 -4.4742,11.76073 h -3.83502 l -6.26387,-17.065848 h 3.77111 l 4.50615,12.591648 4.6979,-12.591648 h 3.35564 l 4.60203,12.655568 4.63398,-12.655568 z" />
            <path
               id="path985"
               style="font-style:normal;font-variant:normal;font-weight:600;font-stretch:normal;font-size:29.85866547px;line-height:1.25;font-family:Montserrat;-inkscape-font-specification:'Montserrat, Semi-Bold';font-variant-ligatures:normal;font-variant-caps:normal;font-variant-numeric:normal;font-feature-settings:normal;text-align:start;letter-spacing:0px;word-spacing:0px;writing-mode:lr-tb;text-anchor:start;fill:#000000;fill-opacity:1;stroke:none;stroke-width:1"
               d="m 659.94556,87.114643 h 3.99481 v 25.321427 h -3.99481 z" />
            <path
               id="path987"
               d="m 634.01387,53.259 5.593,-9.187 -5.593,-7.738 -5.593,7.737 z m 2.354,-9.06 -2.354,3.867 -2.354,-3.867 2.354,-3.256 z" />
            <path
               id="path989"
               d="m 620.58587,45.142 c 5.632,0 10.215,-4.583 10.215,-10.215 0,-5.632 -4.583,-10.215 -10.215,-10.215 -5.632,0 -10.215,4.583 -10.215,10.215 0,5.632 4.583,10.215 10.215,10.215 z m 0,-17.767 c 4.164,0 7.552,3.388 7.552,7.552 0,4.165 -3.388,7.552 -7.552,7.552 -4.164,0 -7.552,-3.388 -7.552,-7.552 0,-4.165 3.388,-7.552 7.552,-7.552 z" />
            <path
               id="path991"
               d="m 647.44087,45.142 c 5.632,0 10.215,-4.583 10.215,-10.215 0,-5.632 -4.583,-10.215 -10.215,-10.215 -5.632,0 -10.215,4.583 -10.215,10.215 10e-4,5.632 4.583,10.215 10.215,10.215 z m 0,-17.767 c 4.164,0 7.552,3.388 7.552,7.552 0,4.165 -3.388,7.552 -7.552,7.552 -4.164,0 -7.552,-3.388 -7.552,-7.552 10e-4,-4.165 3.388,-7.552 7.552,-7.552 z" />
            <path
               id="path993"
               d="m 645.81729,12.706312 c -0.45094,1.293494 -1.21584,2.466673 -2.20508,3.466796 2.3021,0.763006 4.44993,1.868647 6.38281,3.25586 h -6.23828 c -4.206,0 -7.87214,2.358266 -9.74414,5.822266 -1.872,-3.465 -5.53619,-5.822266 -9.74219,-5.822266 h -6.24023 c 1.81512,-1.302696 3.82665,-2.345988 5.9707,-3.101563 -1.01169,-0.98212 -1.80409,-2.142207 -2.28711,-3.423828 -3.71491,1.465649 -7.044,3.705075 -9.77929,6.525391 h -2.60547 c -2.753,0 -4.99219,-2.240141 -4.99219,-4.994141 v -1.267578 h -3 v 1.267578 c 10e-4,4.408 3.58419,7.994141 7.99219,7.994141 h 0.0762 c -3.342,4.585 -5.32031,10.223358 -5.32031,16.318358 v 7.37695 c 0,23.656 19.24634,42.90235 42.90234,42.90235 h 16.95313 v -50.2793 c 0,-6.096 -1.97832,-11.733358 -5.32032,-16.318358 h 0.0762 c 4.408,0 7.99415,-3.586141 7.99415,-7.994141 v -1.267578 h -3 v 1.267578 c 0,2.753 -2.24015,4.994141 -4.99415,4.994141 h -2.60351 c -2.85722,-2.94603 -6.35906,-5.26467 -10.27539,-6.722656 z m -31.22071,9.722656 h 9.67383 c 4.449,0 8.06836,3.617406 8.06836,8.066406 h 0.35157 2.64843 0.35157 c 0,-4.449 3.6184,-8.066406 8.0664,-8.066406 h 9.67383 c 4.031,4.262 6.51172,10.003358 6.51172,16.318358 v 1.13477 c -9.596,4.459 -15.72656,13.97611 -15.72656,24.66211 0,7.932 3.46478,15.37047 9.30078,20.48047 h -6.5293 c -21.451,0 -38.90039,-17.45135 -38.90039,-38.90235 v -7.375 c 0,-6.314 2.47777,-12.056358 6.50976,-16.318358 z m 45.34571,20.808598 v 41.78906 h -1.42383 c -7.002,-4.418 -11.30273,-12.14347 -11.30273,-20.48047 0,-9.029 4.92056,-17.11759 12.72656,-21.30859 z" />
            <path
               id="path995"
               d="m 633.98236,-15.500342 c -0.5456,0.005 -1.06618,0.126898 -1.45117,0.339844 l -22.80274,12.5546865 c -0.81878,0.450898 -0.81878,1.181915 0,1.632813 l 11.45313,6.3066405 v 6.269532 c 0,2.859708 1.53783,3.885589 3.83008,5.623443 2.29224,1.737856 5.35855,2.751954 8.7207,2.751953 3.36215,0 6.42846,-1.014097 8.7207,-2.751953 2.29226,-1.737854 3.83008,-2.763735 3.83008,-5.623443 V 5.644189 5.642239 l 12.01563,-6.6152345 c 0.81878,-0.450898 0.81878,-1.181915 0,-1.632813 L 635.49603,-15.162448 c -0.40088,-0.220661 -0.94692,-0.342551 -1.51367,-0.337891 z m 0.0332,2.78711 L 653.8515,-1.7894045 634.01361,9.134424 614.17767,-1.7894045 Z m -9.72265,19.759765 8.23828,4.537109 c 0.81879,0.450734 2.14605,0.450734 2.96484,0 l 7.67578,-4.226562 v 4.246094 c 0,1.758335 -0.91324,1.869384 -2.5957,3.144927 -1.68245,1.275542 -4.11465,2.119141 -6.84375,2.119141 -2.72909,0 -5.15739,-0.843599 -6.83984,-2.119141 -1.68245,-1.275543 -2.59961,-1.386592 -2.59961,-3.144927 z"
               style="color:#000000;font-style:normal;font-variant:normal;font-weight:normal;font-stretch:normal;font-size:medium;line-height:normal;font-family:sans-serif;font-variant-ligatures:normal;font-variant-position:normal;font-variant-caps:normal;font-variant-numeric:normal;font-variant-alternates:normal;font-feature-settings:normal;text-indent:0;text-align:start;text-decoration:none;text-decoration-line:none;text-decoration-style:solid;text-decoration-color:#000000;letter-spacing:normal;word-spacing:normal;text-transform:none;writing-mode:lr-tb;direction:ltr;text-orientation:mixed;dominant-baseline:auto;baseline-shift:baseline;text-anchor:start;white-space:normal;shape-padding:0;clip-rule:nonzero;display:inline;overflow:visible;visibility:visible;opacity:1;isolation:auto;mix-blend-mode:normal;color-interpolation:sRGB;color-interpolation-filters:linearRGB;solid-color:#000000;solid-opacity:1;vector-effect:none;fill:#6600ff;fill-opacity:1;fill-rule:nonzero;stroke:none;stroke-width:3.41669321;stroke-linecap:round;stroke-linejoin:miter;stroke-miterlimit:4;stroke-dasharray:none;stroke-dashoffset:0;stroke-opacity:1;color-rendering:auto;image-rendering:auto;shape-rendering:auto;text-rendering:auto;enable-background:accumulate" />
            <circle
               style="opacity:1;fill:#000000;fill-opacity:1;stroke:none;stroke-width:3.41669273;stroke-linecap:round;stroke-linejoin:miter;stroke-miterlimit:4;stroke-dasharray:none;stroke-opacity:1"
               id="circle997"
               cx="647.44086"
               cy="34.926998"
               r="3.7567856" />
            <circle
               r="3.7567856"
               cy="34.926998"
               cx="620.58588"
               id="circle999"
               style="opacity:1;fill:#000000;fill-opacity:1;stroke:none;stroke-width:3.41669273;stroke-linecap:round;stroke-linejoin:miter;stroke-miterlimit:4;stroke-dasharray:none;stroke-opacity:1" />
          </g>
        </g>
      </g>
    </g>
  </g>
</svg>
