<?xml version="1.0" encoding="UTF-8" standalone="no"?>
<svg
   xmlns:dc="http://purl.org/dc/elements/1.1/"
   xmlns:cc="http://creativecommons.org/ns#"
   xmlns:rdf="http://www.w3.org/1999/02/22-rdf-syntax-ns#"
   xmlns:svg="http://www.w3.org/2000/svg"
   xmlns="http://www.w3.org/2000/svg"
   width="17.291468mm"
   height="33.849876mm"
   viewBox="0 0 17.291468 33.849876"
   version="1.1"
   id="svg8">
  <defs
     id="defs2" />
  <metadata
     id="metadata5">
    <rdf:RDF>
      <cc:Work
         rdf:about="">
        <dc:format>image/svg+xml</dc:format>
        <dc:type
           rdf:resource="http://purl.org/dc/dcmitype/StillImage" />
        <dc:title></dc:title>
      </cc:Work>
    </rdf:RDF>
  </metadata>
  <g
     id="layer1"
     transform="translate(-199.2034,-14.045204)">
    <g
       id="g853"
       transform="matrix(0.26458333,0,0,0.26458333,31.965255,107.21318)">
      <g
         id="g817"
         display="none"
         style="display:none">
        <rect
           id="rect815"
           stroke-miterlimit="10"
           display="inline"
           height="1293.129"
           width="1551.155"
           style="display:inline;fill:#cc9999;stroke:#592f37;stroke-width:3;stroke-linecap:round;stroke-linejoin:round;stroke-miterlimit:10"
           y="-64.246002"
           x="-100.25" />
      </g>
      <symbol
         transform="translate(30.74435,-336.63047)"
         id="symbol832"
         viewBox="-9.858 -9.858 19.716 19.716">
        <path
           id="path828"
           d="M 8.573,0 C 8.573,-4.735 4.735,-8.573 0,-8.573 -4.735,-8.573 -8.573,-4.735 -8.573,0 -8.573,4.735 -4.735,8.573 0,8.573 4.735,8.573 8.573,4.735 8.573,0 Z"
           stroke-miterlimit="10"
           style="fill:#000000;stroke:#592f37;stroke-width:2.56990004;stroke-miterlimit:10" />
        <path
           id="path830"
           d="m 2.858,0 c 0,-1.578 -1.279,-2.858 -2.858,-2.858 -1.578,0 -2.858,1.279 -2.858,2.858 0,1.578 1.279,2.858 2.858,2.858 1.578,0 2.858,-1.28 2.858,-2.858 z"
           stroke-miterlimit="10"
           style="fill:#000000;stroke:#592f37;stroke-width:2.56990004;stroke-miterlimit:10" />
      </symbol>
      <symbol
         transform="translate(30.74435,-336.63047)"
         id="symbol836"
         viewBox="-5.525 -16.49 11.051 32.981">
        <path
           id="path834"
           d="m 4.526,-15.49 h -9.051 v 30.981 h 1.559 c 4.138,0 7.492,-3.354 7.492,-7.492 z"
           stroke-miterlimit="10"
           style="fill:#000000;stroke:#592f37;stroke-width:2;stroke-miterlimit:10" />
      </symbol>
      <g
         transform="translate(30.74435,-336.63047)"
         id="g840"
         display="none"
         style="display:none">
        <rect
           id="rect838"
           height="1233.377"
           width="1328.934"
           display="inline"
           y="-53.376999"
           x="-482.37399"
           style="display:inline;fill:#000000" />
      </g>
      <g
         id="g928">
        <g
           id="g914"
           style="fill:#ffffff">
          <path
             id="path987"
             d="m 664.75822,-283.37147 5.593,-9.187 -5.593,-7.738 -5.593,7.737 z m 2.354,-9.06 -2.354,3.867 -2.354,-3.867 2.354,-3.256 z"
             style="fill:#ffffff" />
          <g
             id="g902"
             style="fill:#ffffff">
            <path
               d="m 646.94211,-224.1944 q -3.41956,0 -6.168,-1.47009 -2.74842,-1.50204 -4.3144,-4.12264 -1.56596,-2.65255 -1.56596,-5.91233 0,-3.25976 1.56596,-5.88036 1.56598,-2.65255 4.3144,-4.12265 2.74844,-1.50205 6.168,-1.50205 3.41955,0 6.16799,1.50205 2.74843,1.4701 4.3144,4.09069 1.56596,2.6206 1.56596,5.91232 0,3.29174 -1.56596,5.91233 -1.56597,2.6206 -4.3144,4.12264 -2.74844,1.47009 -6.16799,1.47009 z m 0,-3.64326 q 2.23709,0 4.02677,-0.99071 1.78967,-1.02268 2.81235,-2.81236 1.02267,-1.82163 1.02267,-4.05873 0,-2.23709 -1.02267,-4.02677 -1.02268,-1.82163 -2.81235,-2.81235 -1.78968,-1.02267 -4.02677,-1.02267 -2.2371,0 -4.02678,1.02267 -1.78967,0.99072 -2.81234,2.81235 -1.02268,1.78968 -1.02268,4.02677 0,2.2371 1.02268,4.05873 1.02267,1.78968 2.81234,2.81236 1.78968,0.99071 4.02678,0.99071 z"
               style="font-style:normal;font-variant:normal;font-weight:600;font-stretch:normal;font-size:29.85866547px;line-height:1.25;font-family:Montserrat;-inkscape-font-specification:'Montserrat, Semi-Bold';font-variant-ligatures:normal;font-variant-caps:normal;font-variant-numeric:normal;font-feature-settings:normal;text-align:start;letter-spacing:0px;word-spacing:0px;writing-mode:lr-tb;text-anchor:start;fill:#ffffff;fill-opacity:1;stroke:none;stroke-width:1"
               id="path981" />
            <path
               d="m 688.96322,-241.26025 -6.29582,17.06585 h -3.83502 l -4.41027,-11.76073 -4.4742,11.76073 h -3.83502 l -6.26387,-17.06585 h 3.77111 l 4.50615,12.59165 4.6979,-12.59165 h 3.35564 l 4.60203,12.65557 4.63398,-12.65557 z"
               style="font-style:normal;font-variant:normal;font-weight:600;font-stretch:normal;font-size:29.85866547px;line-height:1.25;font-family:Montserrat;-inkscape-font-specification:'Montserrat, Semi-Bold';font-variant-ligatures:normal;font-variant-caps:normal;font-variant-numeric:normal;font-feature-settings:normal;text-align:start;letter-spacing:0px;word-spacing:0px;writing-mode:lr-tb;text-anchor:start;fill:#ffffff;fill-opacity:1;stroke:none;stroke-width:1"
               id="path983" />
            <path
               d="m 690.68991,-249.51583 h 3.99481 v 25.32143 h -3.99481 z"
               style="font-style:normal;font-variant:normal;font-weight:600;font-stretch:normal;font-size:29.85866547px;line-height:1.25;font-family:Montserrat;-inkscape-font-specification:'Montserrat, Semi-Bold';font-variant-ligatures:normal;font-variant-caps:normal;font-variant-numeric:normal;font-feature-settings:normal;text-align:start;letter-spacing:0px;word-spacing:0px;writing-mode:lr-tb;text-anchor:start;fill:#ffffff;fill-opacity:1;stroke:none;stroke-width:1"
               id="path985" />
            <path
               d="m 651.33022,-291.48847 c 5.632,0 10.215,-4.583 10.215,-10.215 0,-5.632 -4.583,-10.215 -10.215,-10.215 -5.632,0 -10.215,4.583 -10.215,10.215 0,5.632 4.583,10.215 10.215,10.215 z m 0,-17.767 c 4.164,0 7.552,3.388 7.552,7.552 0,4.165 -3.388,7.552 -7.552,7.552 -4.164,0 -7.552,-3.388 -7.552,-7.552 0,-4.165 3.388,-7.552 7.552,-7.552 z"
               id="path989"
               style="fill:#ffffff" />
            <path
               d="m 678.18522,-291.48847 c 5.632,0 10.215,-4.583 10.215,-10.215 0,-5.632 -4.583,-10.215 -10.215,-10.215 -5.632,0 -10.215,4.583 -10.215,10.215 10e-4,5.632 4.583,10.215 10.215,10.215 z m 0,-17.767 c 4.164,0 7.552,3.388 7.552,7.552 0,4.165 -3.388,7.552 -7.552,7.552 -4.164,0 -7.552,-3.388 -7.552,-7.552 10e-4,-4.165 3.388,-7.552 7.552,-7.552 z"
               id="path991"
               style="fill:#ffffff" />
            <path
               d="m 676.56164,-323.92416 c -0.45094,1.2935 -1.21584,2.46667 -2.20508,3.4668 2.3021,0.763 4.44993,1.86865 6.38281,3.25586 h -6.23828 c -4.206,0 -7.87214,2.35826 -9.74414,5.82226 -1.872,-3.465 -5.53619,-5.82226 -9.74219,-5.82226 h -6.24023 c 1.81512,-1.3027 3.82665,-2.34599 5.9707,-3.10156 -1.01169,-0.98213 -1.80409,-2.14221 -2.28711,-3.42383 -3.71491,1.46565 -7.044,3.70507 -9.77929,6.52539 h -2.60547 c -2.753,0 -4.99219,-2.24014 -4.99219,-4.99414 v -1.26758 h -3 v 1.26758 c 10e-4,4.408 3.58419,7.99414 7.99219,7.99414 h 0.0762 c -3.342,4.585 -5.32031,10.22336 -5.32031,16.31836 v 7.37695 c 0,23.656 19.24634,42.90235 42.90234,42.90235 h 16.95313 v -50.2793 c 0,-6.096 -1.97832,-11.73336 -5.32032,-16.31836 h 0.0762 c 4.408,0 7.99415,-3.58614 7.99415,-7.99414 v -1.26758 h -3 v 1.26758 c 0,2.753 -2.24015,4.99414 -4.99415,4.99414 h -2.60351 c -2.85722,-2.94603 -6.35906,-5.26467 -10.27539,-6.72266 z m -31.22071,9.72266 h 9.67383 c 4.449,0 8.06836,3.6174 8.06836,8.0664 h 0.35157 2.64843 0.35157 c 0,-4.449 3.6184,-8.0664 8.0664,-8.0664 h 9.67383 c 4.031,4.262 6.51172,10.00336 6.51172,16.31836 v 1.13477 c -9.596,4.459 -15.72656,13.97611 -15.72656,24.66211 0,7.932 3.46478,15.37047 9.30078,20.48047 h -6.5293 c -21.451,0 -38.90039,-17.45135 -38.90039,-38.90235 v -7.375 c 0,-6.314 2.47777,-12.05636 6.50976,-16.31836 z m 45.34571,20.8086 v 41.78906 h -1.42383 c -7.002,-4.418 -11.30273,-12.14347 -11.30273,-20.48047 0,-9.029 4.92056,-17.11759 12.72656,-21.30859 z"
               id="path993"
               style="fill:#ffffff" />
            <circle
               r="3.7567856"
               cy="-301.70346"
               cx="678.18518"
               id="circle997"
               style="opacity:1;fill:#ffffff;fill-opacity:1;stroke:none;stroke-width:3.41669273;stroke-linecap:round;stroke-linejoin:miter;stroke-miterlimit:4;stroke-dasharray:none;stroke-opacity:1" />
            <circle
               style="opacity:1;fill:#ffffff;fill-opacity:1;stroke:none;stroke-width:3.41669273;stroke-linecap:round;stroke-linejoin:miter;stroke-miterlimit:4;stroke-dasharray:none;stroke-opacity:1"
               id="circle999"
               cx="651.3302"
               cy="-301.70346"
               r="3.7567856" />
          </g>
        </g>
        <path
           style="color:#000000;font-style:normal;font-variant:normal;font-weight:normal;font-stretch:normal;font-size:medium;line-height:normal;font-family:sans-serif;font-variant-ligatures:normal;font-variant-position:normal;font-variant-caps:normal;font-variant-numeric:normal;font-variant-alternates:normal;font-feature-settings:normal;text-indent:0;text-align:start;text-decoration:none;text-decoration-line:none;text-decoration-style:solid;text-decoration-color:#000000;letter-spacing:normal;word-spacing:normal;text-transform:none;writing-mode:lr-tb;direction:ltr;text-orientation:mixed;dominant-baseline:auto;baseline-shift:baseline;text-anchor:start;white-space:normal;shape-padding:0;clip-rule:nonzero;display:inline;overflow:visible;visibility:visible;opacity:1;isolation:auto;mix-blend-mode:normal;color-interpolation:sRGB;color-interpolation-filters:linearRGB;solid-color:#000000;solid-opacity:1;vector-effect:none;fill:#6600ff;fill-opacity:1;fill-rule:nonzero;stroke:none;stroke-width:3.41669321;stroke-linecap:round;stroke-linejoin:miter;stroke-miterlimit:4;stroke-dasharray:none;stroke-dashoffset:0;stroke-opacity:1;color-rendering:auto;image-rendering:auto;shape-rendering:auto;text-rendering:auto;enable-background:accumulate"
           d="m 664.72671,-352.13081 c -0.5456,0.005 -1.06618,0.1269 -1.45117,0.33984 l -22.80274,12.55469 c -0.81878,0.4509 -0.81878,1.18191 0,1.63281 l 11.45313,6.30664 v 6.26953 c 0,2.85971 1.53783,3.88559 3.83008,5.62345 2.29224,1.73785 5.35855,2.75195 8.7207,2.75195 3.36215,0 6.42846,-1.0141 8.7207,-2.75195 2.29226,-1.73786 3.83008,-2.76374 3.83008,-5.62345 v -5.95898 -0.002 l 12.01563,-6.61524 c 0.81878,-0.45089 0.81878,-1.18191 0,-1.63281 l -22.80274,-12.55664 c -0.40088,-0.22066 -0.94692,-0.34255 -1.51367,-0.33789 z m 0.0332,2.78711 19.83594,10.92383 -19.83789,10.92382 -19.83594,-10.92382 z m -9.72265,19.75976 8.23828,4.53711 c 0.81879,0.45074 2.14605,0.45074 2.96484,0 l 7.67578,-4.22656 v 4.24609 c 0,1.75834 -0.91324,1.86939 -2.5957,3.14493 -1.68245,1.27554 -4.11465,2.11914 -6.84375,2.11914 -2.72909,0 -5.15739,-0.8436 -6.83984,-2.11914 -1.68245,-1.27554 -2.59961,-1.38659 -2.59961,-3.14493 z"
           id="path995" />
      </g>
    </g>
  </g>
</svg>
